<svg id="Layer_1" data-name="Layer 1" xmlns="http://www.w3.org/2000/svg" viewBox="0 0 288 288"><defs><style>.cls-1{fill:none;stroke:#ad1f9a;stroke-linecap:round;stroke-linejoin:round;stroke-width:8px;}</style></defs><path class="cls-1" d="M126.48,242.62v-9.9a33.43,33.43,0,0,1,33.43-33.43h0m51.4-187.64A18.85,18.85,0,0,0,190,27.7L175,130.76,160.08,28A18.85,18.85,0,0,0,122.72,33c0,.07,0,.14,0,.2l11,77.92a20.07,20.07,0,0,0-33.14,15.21v18.1a20.06,20.06,0,0,0-40.09-1.64c0,.55,0,1.09,0,1.64V198.8c0,40,30.22,75,70.17,77.58,41.16,2.67,80.17-28.41,80.17-77.13,0-64.34,0-42.84,16.55-166.35a18.86,18.86,0,0,0-16-21.28ZM80.54,124.4h0a20.07,20.07,0,0,0-20.07,20.06v24.48A20.07,20.07,0,0,0,80.54,189h0a20.06,20.06,0,0,0,20.06-20.06V144.46A20.06,20.06,0,0,0,80.54,124.4Zm60.15,35.74V126.35a20.07,20.07,0,0,0-20.07-20.06h0a20.06,20.06,0,0,0-20.06,20.06v33.79m110.25,39.12h0a39.12,39.12,0,0,0-39.11-39.12H110.81a10.36,10.36,0,0,0-10.37,10.36h0a28.76,28.76,0,0,0,28.76,28.76H160"/></svg>