<svg id="Layer_1" data-name="Layer 1" xmlns="http://www.w3.org/2000/svg" viewBox="0 0 288 288"><defs><style>.cls-1{fill:none;stroke:#ad1f9a;stroke-linecap:round;stroke-linejoin:round;stroke-width:8px;}</style></defs><path class="cls-1" d="M79.88,145h0a19.54,19.54,0,0,1-19.55-19.54V99.86A19.55,19.55,0,0,1,79.88,80.32h0A19.54,19.54,0,0,1,99.42,99.86h0v25.57A19.53,19.53,0,0,1,79.89,145Zm147.79,3.35a35.72,35.72,0,0,0-35.73-35.68H106.41a7,7,0,0,0-7,7h0V124a31,31,0,0,0,31,31h42.44M141,74.83v37.81m77.72,12.13V73.23a17.83,17.83,0,0,0-35.66-.69v2.29a21,21,0,0,0-42.06,0v-.22a20.81,20.81,0,1,0-41.61,0V99.86a19.55,19.55,0,0,0-39.09,0v62.78a71.56,71.56,0,0,0,71.56,71.56h9.89a85.86,85.86,0,0,0,85.85-85.85A35.54,35.54,0,0,0,218.75,124.77ZM183.09,74.83v37.81M172.36,155h0a34.43,34.43,0,0,0-34.44,34.43v10.18"/></svg>