<svg id="Layer_1" data-name="Layer 1" xmlns="http://www.w3.org/2000/svg" viewBox="0 0 288 288"><defs><style>.cls-1{fill:none;stroke:#ad1f9a;stroke-linecap:round;stroke-linejoin:round;stroke-width:8px;}</style></defs><path class="cls-1" d="M84.68,79.64v53.28m31.06-78.44v78.44m33.14-63.53v63.53m31.06,36.2H148.46a37.27,37.27,0,0,0-28.27,12.95m72-24.44-12.24,11.49V70.28c0-8.5-6.32-16.37-15.53-16.37a15.53,15.53,0,0,0-15.53,15.53v-14c0-8.93-6.63-17.46-16.57-17.46a16.57,16.57,0,0,0-16.57,16.57v-.95A15.3,15.3,0,0,0,100.21,38,15.53,15.53,0,0,0,84.68,53.51V79.64A13.62,13.62,0,0,0,71.06,66c-8.16,0-13.6,6.69-13.6,14.17V192c0,31.83,25.64,58.08,57.51,58.08,31.11,0,49.89-10.83,67-29.8L228.29,170a8.54,8.54,0,0,0-.26-11.84h0A25.79,25.79,0,0,0,192.18,157.63Z"/></svg>